<svg width="29" height="37" viewBox="0 0 29 37" fill="none" xmlns="http://www.w3.org/2000/svg">
<path d="M27.4502 32.7383H-4.89355C-5.67139 32.7383 -6.2998 33.3667 -6.2998 34.1445V35.7266C-6.2998 35.9199 -6.1416 36.0781 -5.94824 36.0781H28.5049C28.6982 36.0781 28.8564 35.9199 28.8564 35.7266V34.1445C28.8564 33.3667 28.228 32.7383 27.4502 32.7383ZM0.103028 29.0469C0.190918 29.0469 0.278809 29.0381 0.3667 29.0249L7.7583 27.7285C7.84619 27.7109 7.92969 27.6714 7.99121 27.6055L26.6196 8.97705C26.6604 8.93639 26.6927 8.8881 26.7147 8.83494C26.7368 8.78178 26.7481 8.72479 26.7481 8.66724C26.7481 8.60968 26.7368 8.55269 26.7147 8.49953C26.6927 8.44637 26.6604 8.39808 26.6196 8.35742L19.3159 1.04932C19.2324 0.96582 19.1226 0.921875 19.0039 0.921875C18.8853 0.921875 18.7754 0.96582 18.6919 1.04932L0.0634761 19.6777C-0.00244188 19.7437 -0.0419922 19.8228 -0.0595703 19.9106L-1.35596 27.3022C-1.39871 27.5377 -1.38343 27.78 -1.31145 28.0081C-1.23948 28.2363 -1.11296 28.4435 -0.942872 28.6118C-0.652833 28.8931 -0.288085 29.0469 0.103028 29.0469Z" fill="#9E1C24"/>
</svg>
